<?xml version="1.0" encoding="UTF-8" standalone="no"?>
<!DOCTYPE svg PUBLIC "-//W3C//DTD SVG 1.1//EN" "http://www.w3.org/Graphics/SVG/1.1/DTD/svg11.dtd">
<svg xmlns="http://www.w3.org/2000/svg" xmlns:xlink="http://www.w3.org/1999/xlink" viewBox="0 0 439.78 348.57">
	<defs>
		<mask id="mask" x="195.83" y="99.7" width="243.95" height="248.87" maskUnits="userSpaceOnUse">
			<g transform="translate(-72 -71.8)">
				<g id="flag-stripes">
					<path d="M300.7,369.2c2.6-6.9,9.1-13.4,21.2-15l1.7-.2a27,27,0,0,0,20.1-16.6c1.3-3.5,2.6-11.4,1.5-19.3l-5.9-44.5.1.4-5.9-44.9-5.8-43.7,111.5-13.9,5.9,43.9,5.8,44.9,5.8,43.8,5.7,43,.2.9,5.4,43.4L329.2,409.6a27.86,27.86,0,0,1-31.3-24,27.5,27.5,0,0,1,2.8-16.4" style="fill:#fff"/>
				</g>
			</g>
		</mask>
	</defs>
	<title>WordPress Pride Flag Generator</title>
	<g style="mask:url(#mask)">
		<path d="M267.83,211.94l218.36-26.81,5.28,43L273.11,255Z" transform="translate(-72 -71.8)" style="fill:#df4c3e"/>
		<path d="M271.89,245l218.36-26.81,5.28,43L277.17,288Z" transform="translate(-72 -71.8)" style="fill:#f47c3b"/>
		<path d="M275.95,278.11,494.31,251.3l5.28,43L281.23,321.12Z" transform="translate(-72 -71.8)" style="fill:#fdb813"/>
		<path d="M280,311.19l218.36-26.81,5.28,43L285.29,354.21Z" transform="translate(-72 -71.8)" style="fill:#74b95c"/>
		<path d="M284.07,344.28l218.36-26.81,5.28,43L289.36,387.29Z" transform="translate(-72 -71.8)" style="fill:#3ea7d5"/>
		<path d="M288.14,377.36,506.5,350.55l5.28,43L293.42,420.37Z" transform="translate(-72 -71.8)" style="fill:#8b79b8"/>
	</g>
	<path d="M78,103H89.3V409.8H78Z" transform="translate(-72 -71.8)" style="fill:#546670"/>
	<circle cx="11.7" cy="11.7" r="11.7" style="fill:#546670"/>
	<path d="M314.6,299,287,302.6l10.9,82.9a27.86,27.86,0,0,1,24-31.3c17.1-2.2,26.6-16.7,24.2-31.9A27.74,27.74,0,0,0,314.6,299Z" transform="translate(-72 -71.8)" style="fill:#546670"/>
	<path d="M314.6,299a27.89,27.89,0,0,1,31.2,24l-3.6-27.6-2.5-18.6L316.8,103a27.86,27.86,0,0,0-31.3-24L100.6,103.4V327.2L314.5,299Z" transform="translate(-72 -71.8)" style="fill:#3ea7d5"/>
	<path d="M204.1,122.9a75.72,75.72,0,1,0,84.4,65.9v-.1a75.78,75.78,0,0,0-84.4-65.8m-58.3,83.5a67.22,67.22,0,0,1,2.5-28.2l43.2,84.3a68.32,68.32,0,0,1-45.7-56.1m76,59.2a66.35,66.35,0,0,1-19.4-.4l13-61.4,27.8,54.3.6.9a67.5,67.5,0,0,1-22,6.6m-3-100.4c4-.7,7.6-1.6,7.6-1.6,3.6-.9,2.5-6.2-1.1-5.5,0,0-10.8,2.2-17.9,3.1s-17.9,1.3-17.9,1.3c-3.7.2-3.4,5.9.3,5.6,0,0,3.5,0,7.2-.2l14,27.6-9.3,46.2L168,171.6c4-.7,7.7-1.6,7.7-1.6,3.6-.9,2.5-6.2-1.1-5.5,0,0-10.8,2.2-17.9,3.1l-4.4.5a68,68,0,0,1,91.2-30.8,73.22,73.22,0,0,1,9.3,5.5H252c-6.6.8-10.6,7.2-9.9,13.4s4.5,9.9,8.6,15,6.8,9.6,7.9,17.9c.7,5.8-.7,12.8-2.4,22.5l-4,23.3Zm49.9-6.9a68.13,68.13,0,0,1-14.1,93.9L267.8,190c2.7-10.1,3-18,2.1-24.8q-.45-3.45-1.2-6.9" transform="translate(-72 -71.8)" style="fill:#f4f4f5"/>
</svg>
