<?xml version="1.0" encoding="utf-8"?>
<!-- Generator: Adobe Illustrator 21.1.0, SVG Export Plug-In . SVG Version: 6.00 Build 0)  -->
<svg version="1.1" id="Layer_1" xmlns="http://www.w3.org/2000/svg" xmlns:xlink="http://www.w3.org/1999/xlink" x="0px" y="0px"
	 viewBox="0 0 540 481.7" style="enable-background:new 0 0 540 481.7;" xml:space="preserve">
<style type="text/css">
	.st0{fill:#546670;}
	.st1{fill:#3EA7D5;}
	.st2{fill:#F0F3F5;}
	.st3{fill:#1D439B;}
	.st4{fill:#744E97;}
	.st5{fill:#D71673;}
</style>
<g id="Pole">
	<path class="st0" d="M93.5,103h11.3v306.8H93.5V103z"/>
	<circle class="st0" cx="99.1" cy="83.5" r="11.7"/>
</g>
<path id="Shadow" class="st0" d="M331.2,298.9c-3.5,0.3-28.8,3.7-28.8,3.7l11.3,82.9c-2.1-15.3,9-29.3,24.8-31.3
	c15.6-3,25.8-17.7,22.7-32.8C358.4,307.6,346.6,297.6,331.2,298.9z"/>
<path id="Base" class="st1" d="M330,299c15.3-2,29.3,8.7,31.3,24l-3.6-27.6l-2.5-18.6L332.3,103c-2-15.3-16-26-31.3-24l-184.9,24.4
	v223.8L330,299z"/>
<path id="W" class="st2" d="M219.6,122.9c-41.5,5.1-71,42.9-65.9,84.4s42.9,71,84.4,65.9c41.5-5.1,71-42.9,65.9-84.4
	C298.8,147.4,261.1,117.9,219.6,122.9 M161.3,206.5c-1.2-9.5-0.3-19.1,2.5-28.2l43.2,84.3C182.3,254.2,164.6,232.4,161.3,206.5
	 M237.3,265.7c-6.5,0.8-13,0.7-19.4-0.4l13-61.4l27.8,54.3l0.6,0.9C252.4,262.5,245,264.8,237.3,265.7 M234.3,165.3
	c4-0.7,7.6-1.6,7.6-1.6c3.6-0.9,2.5-6.2-1.1-5.5c0,0-10.8,2.2-17.9,3.1s-17.9,1.3-17.9,1.3c-3.7,0.2-3.4,5.9,0.3,5.6
	c0,0,3.5,0,7.2-0.2l14.1,27.5l-9.3,46.2l-33.7-70.1c4-0.7,7.7-1.6,7.7-1.6c3.6-0.9,2.5-6.2-1.1-5.5c0,0-10.8,2.2-17.9,3.1l-4.4,0.5
	c16.7-33.7,57.5-47.5,91.2-30.8c3.2,1.6,6.3,3.4,9.3,5.5h-0.9c-6.6,0.8-10.6,7.2-9.9,13.4s4.5,9.9,8.6,15s6.8,9.6,7.9,17.9
	c0.7,5.8-0.7,12.8-2.4,22.5l-4,23.3L234.3,165.3z M284.2,158.4c21.5,30,15.2,71.6-14.1,93.9l13.2-62.3c2.7-10.1,3-18,2.1-24.8
	c-0.3-2.3-0.7-4.6-1.3-6.9"/>
<path id="Bottom" class="st3" d="M344.7,409.5c-3.1,0.4-6.2,0.3-9.2-0.3c-15.1-3.1-24.9-17.8-21.8-32.9l-0.1-0.1
	c2.4-11.6,11.9-20.5,23.7-22l1.7-0.2c10.8-2.1,19.3-10.3,21.8-21l113.3-13.9l9.4,72.2L344.7,409.5z"/>
<path id="Middle" class="st4" d="M352.9,259l111.5-13.7l9.8,73.8L360.8,333v0c0.4-1.7,0.6-3.5,0.7-5.3v-2.3l-0.2-2v-0.3L352.9,259z"
	/>
<path id="Top" class="st5" d="M454.7,171.5l9.7,73.8L352.9,259l-9.7-73.6L454.7,171.5z"/>
</svg>
